M48
; DRILL file KiCad 10.0.6 date 2026-09-16T23:04:32
; FORMAT={-:-/ absolute / metric / decimal}
; #@! TF.CreationDate,2026-09-16T23:04:32+05:30
; #@! TF.GenerationSoftware,Kicad,Pcbnew,10.0.6
; #@! TF.FileFunction,Plated,1,2,PTH
FMAT,2
METRIC
; #@! TA.AperFunction,Plated,PTH,ViaDrill
T1C0.300
; #@! TA.AperFunction,Plated,PTH,ComponentDrill
T2C1.000
; #@! TA.AperFunction,Plated,PTH,ComponentDrill
T3C1.200
; #@! TA.AperFunction,Plated,PTH,ComponentDrill
T4C1.400
%
G90
G05
T1
X143.25Y-83.5
X143.25Y-118.5
X145.75Y-70.75
X146.5Y-118.5
X148.5Y-79.5
X148.75Y-83.5
X150.25Y-76.15
X150.5Y-82.25
X153.25Y-94.0
X153.25Y-127.25
X153.67Y-123.25
X156.0Y-68.93
X156.0Y-91.25
X156.0Y-96.5
X159.0Y-90.0
X159.5Y-97.5
X160.5Y-70.5
X166.0Y-70.75
X166.25Y-98.0
X167.5Y-120.75
X169.0Y-92.0
X169.75Y-74.25
X171.75Y-75.75
X172.0Y-121.0
X173.25Y-92.0
X173.5Y-76.5
X173.75Y-75.25
X173.75Y-103.25
X174.65Y-97.75
X175.0Y-73.75
X175.25Y-95.0
X175.25Y-103.25
X175.25Y-110.5
X175.65Y-112.279
X175.75Y-96.25
X176.0Y-89.75
X176.25Y-98.35
X176.25Y-103.25
X176.45Y-91.75
X176.5Y-78.5
X176.5Y-90.5
X177.0Y-98.85
X177.009Y-102.997
X177.25Y-89.75
X177.25Y-97.0
X177.609Y-103.569
X177.609Y-110.25
X177.75Y-78.75
X178.0Y-91.15
X178.0Y-95.0
X178.25Y-102.4
X178.253Y-95.759
X178.75Y-85.75
X179.043Y-102.506
X180.326Y-77.826
X180.75Y-77.0
X181.0Y-80.5
X182.0Y-101.0
X182.0Y-101.8
X182.25Y-83.95
X182.281Y-99.1
X182.5Y-76.5
X182.75Y-91.75
X182.75Y-97.25
X182.75Y-103.25
X183.5Y-82.25
X183.5Y-88.0
X183.85Y-104.75
X184.0Y-74.5
X184.0Y-76.25
X184.0Y-125.5
X184.29Y-109.29
X184.45Y-106.05
X184.5Y-99.75
X184.75Y-103.5
X184.9Y-108.75
X185.0Y-125.0
X185.5Y-93.4
X185.5Y-120.5
X185.75Y-99.75
X185.926Y-94.674
X186.0Y-127.0
X186.25Y-96.25
X186.299Y-97.049
X186.5Y-121.5
X186.536Y-99.9
X187.434Y-105.066
X187.5Y-73.75
X187.5Y-106.0
X187.75Y-86.0
X188.0Y-104.5
X188.25Y-120.25
X188.276Y-97.974
X188.449Y-95.85
X188.5Y-77.0
X188.5Y-103.5
X188.812Y-98.572
X189.099Y-96.5
X189.1Y-78.0
X189.5Y-110.75
X189.6Y-77.375
X189.75Y-97.0
X190.0Y-91.25
X190.25Y-102.5
X190.316Y-97.566
X190.5Y-92.25
X190.75Y-95.3
X191.15Y-93.268
X191.15Y-94.068
X191.232Y-103.4
X192.5Y-104.25
X192.5Y-105.05
X192.75Y-106.0
X192.75Y-110.25
X193.5Y-107.25
X194.0Y-90.65
X194.0Y-92.75
X194.5Y-106.25
X194.6Y-91.85
X194.652Y-85.956
X194.75Y-86.75
X195.0Y-90.25
X195.25Y-92.5
X195.75Y-95.25
X195.85Y-90.25
X196.25Y-92.75
X196.5Y-95.85
X197.0Y-94.65
X197.0Y-106.75
X197.55Y-91.25
X197.75Y-85.25
X197.75Y-105.65
X198.35Y-110.25
X198.5Y-93.9
X199.75Y-94.0
X201.25Y-91.25
X203.5Y-122.75
X204.25Y-72.75
X207.0Y-83.25
X208.25Y-84.75
X208.25Y-89.25
X208.25Y-93.0
X208.25Y-101.0
X208.5Y-78.75
X208.5Y-102.25
X208.5Y-106.0
X208.75Y-74.0
X208.75Y-75.5
X209.5Y-72.5
X209.5Y-85.356
X209.5Y-87.5
X210.3Y-85.356
X210.3Y-87.5
X211.5Y-79.5
X212.0Y-73.75
X212.0Y-77.0
X212.5Y-75.0
X216.0Y-77.0
X216.25Y-123.5
X216.5Y-81.75
X217.5Y-76.75
X218.5Y-125.75
X220.781Y-81.031
X221.0Y-91.75
X222.12Y-75.0
X222.5Y-82.63
X225.85Y-91.5
T2
X146.25Y-79.51
X146.25Y-82.05
X146.25Y-84.59
X146.25Y-87.13
X146.25Y-89.67
X146.25Y-92.21
X146.25Y-94.75
X146.25Y-97.29
X146.25Y-99.83
X146.25Y-102.37
X146.25Y-104.91
X146.25Y-107.45
X146.25Y-109.99
X146.25Y-112.53
X146.25Y-115.07
X153.67Y-123.25
X156.21Y-123.25
X158.75Y-123.25
X161.29Y-123.25
X163.83Y-123.25
X166.37Y-123.25
X174.13Y-123.0
X175.02Y-71.75
X176.67Y-123.0
X177.56Y-71.75
X179.21Y-123.0
X180.1Y-71.75
X181.75Y-123.0
X182.64Y-71.75
X184.29Y-123.0
X186.83Y-123.0
X187.25Y-71.75
X189.37Y-123.0
X189.79Y-71.75
X191.91Y-123.0
X192.33Y-71.75
X194.45Y-123.0
X194.87Y-71.75
X196.99Y-123.0
X197.41Y-71.75
X206.17Y-123.0
X208.71Y-123.0
X211.25Y-123.0
X213.79Y-123.0
X222.5Y-80.09
X222.5Y-82.63
X222.5Y-85.17
X222.5Y-87.71
X222.5Y-90.25
X222.5Y-92.79
X222.5Y-95.33
X222.5Y-97.87
X222.5Y-100.41
X222.5Y-102.95
X222.5Y-105.49
X222.5Y-108.03
X222.5Y-110.57
T3
X206.5Y-67.05
X214.25Y-67.05
T4
X206.65Y-70.85
X214.1Y-70.85
M30
