%TF.GenerationSoftware,KiCad,Pcbnew,10.0.6*%
%TF.CreationDate,2026-09-16T23:04:47+05:30*%
%TF.ProjectId,stm32 dev board,73746d33-3220-4646-9576-20626f617264,rev?*%
%TF.SameCoordinates,Original*%
%TF.FileFunction,Soldermask,Top*%
%TF.FilePolarity,Negative*%
%FSLAX46Y46*%
G04 Gerber Fmt 4.6, Leading zero omitted, Abs format (unit mm)*
G04 Created by KiCad (PCBNEW 10.0.6) date 2026-09-16 23:04:47*
%MOMM*%
%LPD*%
G01*
G04 APERTURE LIST*
G04 Aperture macros list*
%AMRoundRect*
0 Rectangle with rounded corners*
0 $1 Rounding radius*
0 $2 $3 $4 $5 $6 $7 $8 $9 X,Y pos of 4 corners*
0 Add a 4 corners polygon primitive as box body*
4,1,4,$2,$3,$4,$5,$6,$7,$8,$9,$2,$3,0*
0 Add four circle primitives for the rounded corners*
1,1,$1+$1,$2,$3*
1,1,$1+$1,$4,$5*
1,1,$1+$1,$6,$7*
1,1,$1+$1,$8,$9*
0 Add four rect primitives between the rounded corners*
20,1,$1+$1,$2,$3,$4,$5,0*
20,1,$1+$1,$4,$5,$6,$7,0*
20,1,$1+$1,$6,$7,$8,$9,0*
20,1,$1+$1,$8,$9,$2,$3,0*%
G04 Aperture macros list end*
%ADD10RoundRect,0.218750X0.218750X0.256250X-0.218750X0.256250X-0.218750X-0.256250X0.218750X-0.256250X0*%
%ADD11RoundRect,0.135000X-0.185000X0.135000X-0.185000X-0.135000X0.185000X-0.135000X0.185000X0.135000X0*%
%ADD12R,1.000000X0.800000*%
%ADD13C,0.900000*%
%ADD14R,0.700000X1.500000*%
%ADD15R,1.700000X1.700000*%
%ADD16C,1.700000*%
%ADD17RoundRect,0.225000X-0.225000X-0.250000X0.225000X-0.250000X0.225000X0.250000X-0.225000X0.250000X0*%
%ADD18RoundRect,0.250000X-0.475000X0.250000X-0.475000X-0.250000X0.475000X-0.250000X0.475000X0.250000X0*%
%ADD19RoundRect,0.225000X0.225000X0.250000X-0.225000X0.250000X-0.225000X-0.250000X0.225000X-0.250000X0*%
%ADD20RoundRect,0.250000X0.475000X-0.250000X0.475000X0.250000X-0.475000X0.250000X-0.475000X-0.250000X0*%
%ADD21RoundRect,0.250000X-0.250000X-0.475000X0.250000X-0.475000X0.250000X0.475000X-0.250000X0.475000X0*%
%ADD22RoundRect,0.250000X0.250000X0.475000X-0.250000X0.475000X-0.250000X-0.475000X0.250000X-0.475000X0*%
%ADD23RoundRect,0.135000X-0.135000X-0.185000X0.135000X-0.185000X0.135000X0.185000X-0.135000X0.185000X0*%
%ADD24RoundRect,0.375000X0.625000X0.375000X-0.625000X0.375000X-0.625000X-0.375000X0.625000X-0.375000X0*%
%ADD25RoundRect,0.500000X0.500000X1.400000X-0.500000X1.400000X-0.500000X-1.400000X0.500000X-1.400000X0*%
%ADD26RoundRect,0.250000X-0.550000X0.250000X-0.550000X-0.250000X0.550000X-0.250000X0.550000X0.250000X0*%
%ADD27RoundRect,0.250000X-1.000000X1.250000X-1.000000X-1.250000X1.000000X-1.250000X1.000000X1.250000X0*%
%ADD28RoundRect,0.135000X0.135000X0.185000X-0.135000X0.185000X-0.135000X-0.185000X0.135000X-0.185000X0*%
%ADD29RoundRect,0.225000X0.250000X-0.225000X0.250000X0.225000X-0.250000X0.225000X-0.250000X-0.225000X0*%
%ADD30C,0.800000*%
%ADD31RoundRect,0.112500X0.112500X0.537500X-0.112500X0.537500X-0.112500X-0.537500X0.112500X-0.537500X0*%
%ADD32C,1.800000*%
%ADD33C,2.000000*%
%ADD34RoundRect,0.075000X-0.075000X-0.700000X0.075000X-0.700000X0.075000X0.700000X-0.075000X0.700000X0*%
%ADD35RoundRect,0.075000X-0.700000X-0.075000X0.700000X-0.075000X0.700000X0.075000X-0.700000X0.075000X0*%
G04 APERTURE END LIST*
D10*
%TO.C,D3*%
X218787500Y-72000000D03*
X217212500Y-72000000D03*
%TD*%
D11*
%TO.C,R5*%
X183740000Y-69020000D03*
X183740000Y-68000000D03*
%TD*%
%TO.C,R6*%
X181750000Y-69020000D03*
X181750000Y-68000000D03*
%TD*%
D12*
%TO.C,SW1*%
X151650000Y-68280000D03*
X151650000Y-66070000D03*
D13*
X149500000Y-67170000D03*
X146500000Y-67170000D03*
D12*
X144350000Y-68280000D03*
X144350000Y-66070000D03*
D14*
X150250000Y-68930000D03*
X147250000Y-68930000D03*
X145750000Y-68930000D03*
%TD*%
D12*
%TO.C,SW3*%
X171900000Y-68280000D03*
X171900000Y-66070000D03*
D13*
X169750000Y-67170000D03*
X166750000Y-67170000D03*
D12*
X164600000Y-68280000D03*
X164600000Y-66070000D03*
D14*
X170500000Y-68930000D03*
X167500000Y-68930000D03*
X166000000Y-68930000D03*
%TD*%
D12*
%TO.C,SW2*%
X161900000Y-68280000D03*
X161900000Y-66070000D03*
D13*
X159750000Y-67170000D03*
X156750000Y-67170000D03*
D12*
X154600000Y-68280000D03*
X154600000Y-66070000D03*
D14*
X160500000Y-68930000D03*
X157500000Y-68930000D03*
X156000000Y-68930000D03*
%TD*%
D15*
%TO.C,J4*%
X182640000Y-71750000D03*
D16*
X180100000Y-71750000D03*
X177560000Y-71750000D03*
X175020000Y-71750000D03*
%TD*%
D17*
%TO.C,C9*%
X215025000Y-77000000D03*
X213475000Y-77000000D03*
%TD*%
D18*
%TO.C,C3*%
X192500000Y-107050000D03*
X192500000Y-108950000D03*
%TD*%
D19*
%TO.C,C8*%
X162545000Y-97500000D03*
X160995000Y-97500000D03*
%TD*%
D20*
%TO.C,C1*%
X182250000Y-83950000D03*
X182250000Y-82050000D03*
%TD*%
D15*
%TO.C,J3*%
X213790000Y-123000000D03*
D16*
X211250000Y-123000000D03*
X208710000Y-123000000D03*
X206170000Y-123000000D03*
%TD*%
D21*
%TO.C,C11*%
X173050000Y-97750000D03*
X174950000Y-97750000D03*
%TD*%
D22*
%TO.C,C5*%
X174550000Y-91750000D03*
X176450000Y-91750000D03*
%TD*%
D23*
%TO.C,R4*%
X219990000Y-75000000D03*
X221010000Y-75000000D03*
%TD*%
D24*
%TO.C,U2*%
X206900000Y-81050000D03*
X206900000Y-78750000D03*
D25*
X200600000Y-78750000D03*
D24*
X206900000Y-76450000D03*
%TD*%
D21*
%TO.C,C2*%
X197550000Y-91250000D03*
X199450000Y-91250000D03*
%TD*%
D10*
%TO.C,D2*%
X170787500Y-122000000D03*
X169212500Y-122000000D03*
%TD*%
D15*
%TO.C,J8*%
X153670000Y-123250000D03*
D16*
X156210000Y-123250000D03*
X158750000Y-123250000D03*
X161290000Y-123250000D03*
X163830000Y-123250000D03*
X166370000Y-123250000D03*
%TD*%
D26*
%TO.C,Y1*%
X162525000Y-92480000D03*
X162525000Y-95020000D03*
D27*
X155975000Y-93750000D03*
%TD*%
D23*
%TO.C,R3*%
X200990000Y-72750000D03*
X202010000Y-72750000D03*
%TD*%
D15*
%TO.C,J9*%
X174130000Y-123000000D03*
D16*
X176670000Y-123000000D03*
X179210000Y-123000000D03*
X181750000Y-123000000D03*
X184290000Y-123000000D03*
X186830000Y-123000000D03*
X189370000Y-123000000D03*
X191910000Y-123000000D03*
X194450000Y-123000000D03*
X196990000Y-123000000D03*
%TD*%
D28*
%TO.C,R7*%
X170510000Y-119750000D03*
X169490000Y-119750000D03*
%TD*%
D18*
%TO.C,C4*%
X184000000Y-106050000D03*
X184000000Y-107950000D03*
%TD*%
D19*
%TO.C,C6*%
X170225000Y-91000000D03*
X171775000Y-91000000D03*
%TD*%
D29*
%TO.C,C15*%
X189500000Y-109025000D03*
X189500000Y-107475000D03*
%TD*%
D19*
%TO.C,C7*%
X162295000Y-90250000D03*
X160745000Y-90250000D03*
%TD*%
D15*
%TO.C,J6*%
X222500000Y-110570000D03*
D16*
X222500000Y-108030000D03*
X222500000Y-105490000D03*
X222500000Y-102950000D03*
X222500000Y-100410000D03*
X222500000Y-97870000D03*
X222500000Y-95330000D03*
X222500000Y-92790000D03*
X222500000Y-90250000D03*
X222500000Y-87710000D03*
X222500000Y-85170000D03*
X222500000Y-82630000D03*
X222500000Y-80090000D03*
%TD*%
D15*
%TO.C,J2*%
X197410000Y-71750000D03*
D16*
X194870000Y-71750000D03*
X192330000Y-71750000D03*
X189790000Y-71750000D03*
X187250000Y-71750000D03*
%TD*%
D11*
%TO.C,R2*%
X185250000Y-80490000D03*
X185250000Y-81510000D03*
%TD*%
D23*
%TO.C,R1*%
X154240000Y-76750000D03*
X155260000Y-76750000D03*
%TD*%
%TO.C,R8*%
X173990000Y-69000000D03*
X175010000Y-69000000D03*
%TD*%
D19*
%TO.C,C10*%
X215025000Y-74750000D03*
X213475000Y-74750000D03*
%TD*%
D30*
%TO.C,J1*%
X212875000Y-69800000D03*
X207875000Y-69800000D03*
D31*
X211675000Y-70900000D03*
X211025000Y-70900000D03*
X210375000Y-70900000D03*
X209725000Y-70900000D03*
X209075000Y-70900000D03*
D32*
X214250000Y-67050000D03*
D33*
X214100000Y-70850000D03*
X206650000Y-70850000D03*
D32*
X206500000Y-67050000D03*
%TD*%
D21*
%TO.C,C14*%
X168300000Y-97750000D03*
X170200000Y-97750000D03*
%TD*%
D15*
%TO.C,J5*%
X146250000Y-115070000D03*
D16*
X146250000Y-112530000D03*
X146250000Y-109990000D03*
X146250000Y-107450000D03*
X146250000Y-104910000D03*
X146250000Y-102370000D03*
X146250000Y-99830000D03*
X146250000Y-97290000D03*
X146250000Y-94750000D03*
X146250000Y-92210000D03*
X146250000Y-89670000D03*
X146250000Y-87130000D03*
X146250000Y-84590000D03*
X146250000Y-82050000D03*
X146250000Y-79510000D03*
%TD*%
D34*
%TO.C,U1*%
X183000000Y-89825000D03*
X183500000Y-89825000D03*
X184000000Y-89825000D03*
X184500000Y-89825000D03*
X185000000Y-89825000D03*
X185500000Y-89825000D03*
X186000000Y-89825000D03*
X186500000Y-89825000D03*
X187000000Y-89825000D03*
X187500000Y-89825000D03*
X188000000Y-89825000D03*
X188500000Y-89825000D03*
X189000000Y-89825000D03*
X189500000Y-89825000D03*
X190000000Y-89825000D03*
X190500000Y-89825000D03*
D35*
X192425000Y-91750000D03*
X192425000Y-92250000D03*
X192425000Y-92750000D03*
X192425000Y-93250000D03*
X192425000Y-93750000D03*
X192425000Y-94250000D03*
X192425000Y-94750000D03*
X192425000Y-95250000D03*
X192425000Y-95750000D03*
X192425000Y-96250000D03*
X192425000Y-96750000D03*
X192425000Y-97250000D03*
X192425000Y-97750000D03*
X192425000Y-98250000D03*
X192425000Y-98750000D03*
X192425000Y-99250000D03*
D34*
X190500000Y-101175000D03*
X190000000Y-101175000D03*
X189500000Y-101175000D03*
X189000000Y-101175000D03*
X188500000Y-101175000D03*
X188000000Y-101175000D03*
X187500000Y-101175000D03*
X187000000Y-101175000D03*
X186500000Y-101175000D03*
X186000000Y-101175000D03*
X185500000Y-101175000D03*
X185000000Y-101175000D03*
X184500000Y-101175000D03*
X184000000Y-101175000D03*
X183500000Y-101175000D03*
X183000000Y-101175000D03*
D35*
X181075000Y-99250000D03*
X181075000Y-98750000D03*
X181075000Y-98250000D03*
X181075000Y-97750000D03*
X181075000Y-97250000D03*
X181075000Y-96750000D03*
X181075000Y-96250000D03*
X181075000Y-95750000D03*
X181075000Y-95250000D03*
X181075000Y-94750000D03*
X181075000Y-94250000D03*
X181075000Y-93750000D03*
X181075000Y-93250000D03*
X181075000Y-92750000D03*
X181075000Y-92250000D03*
X181075000Y-91750000D03*
%TD*%
M02*
